<svg id="Layer_1" data-name="Layer 1" xmlns="http://www.w3.org/2000/svg" viewBox="0 0 200.75 103.29"><defs><style>.cls-1{fill:#004684;}</style></defs><title>ccc-logo</title><path class="cls-1" d="M131.9,31c-3.67,0-7-2.36-8.9-6.41-2.24-4.85-1.29-9.7,2.42-12.36L143.07.06a.32.32,0,0,1,.36.52L125.78,12.7c-3.45,2.47-4.32,7-2.21,11.57s6.12,6.8,10.25,5.81l34.61-8.65a.32.32,0,1,1,.15.61L134,30.7A8.89,8.89,0,0,1,131.9,31Z"/><path class="cls-1" d="M138.27,29.16a.31.31,0,0,0-.41.17,6.54,6.54,0,0,1-3.57,3.4l-.14,0a14.88,14.88,0,0,1-2.21.45c-3.34.37-7.95-2-10.64-7.78-1.72-3.73-2.41-9.71.7-13.08a10.92,10.92,0,0,1,2-1.6,6.6,6.6,0,0,1,4.81-.69.32.32,0,0,0,.39-.21c.05-.17.22-.27.05-.32a7.4,7.4,0,0,0-5.54.69,14.09,14.09,0,0,0-1.91,1.48L100,28.64A6.23,6.23,0,0,0,94,28c-.12.06-.24.13-.36.19a.31.31,0,0,0-.14.06h0l-.06,0-.1.07a5.6,5.6,0,0,0-.45.33l-.06,0a6,6,0,0,0-.74.72L88.7,32.35c-2.77-1.92-5.78-2.36-8.3-1.19a6.89,6.89,0,0,0-1.28.78A.31.31,0,0,0,79,32l-.21.19-.06.06-.32.3,0,0-6.43,6a12.25,12.25,0,0,0-3.66,5.72l-3.53,3.36h0a3.8,3.8,0,0,0-1,2.89v-.08L32.21,66.86s32.24-14,32.48-14h0l0,0A2.88,2.88,0,0,0,67.2,54l.49,0h0l4.75-.47a10.12,10.12,0,0,0,4.86,1.1,17,17,0,0,0,2-.13h0l8.19-1a7.22,7.22,0,0,0,2.92-.65c2.54-1.17,4.21-3.9,4.49-7.3l4.19-.62a5.67,5.67,0,0,0,1.92-.28h.07a.35.35,0,0,0,.16-.08l.4-.16a6.24,6.24,0,0,0,3.35-5l26.89-5.51a10.83,10.83,0,0,0,2.56-.54l.12,0a7.32,7.32,0,0,0,3.88-3.71A.32.32,0,0,0,138.27,29.16ZM95.14,37.42a4.84,4.84,0,0,0,4.35,3,4.57,4.57,0,0,0,1.24-.17l1.15-.24a3.2,3.2,0,0,1-1.32,1.16,3.94,3.94,0,0,1-3.43-.24,6.58,6.58,0,0,1-2.93-3.13,6.47,6.47,0,0,1-.47-4.22,4,4,0,0,1,2.05-2.74,3.2,3.2,0,0,1,1.75-.26l-.92.72A4.79,4.79,0,0,0,95.14,37.42Zm.38-7.14a4.58,4.58,0,0,0-2.4,3.16,7.1,7.1,0,0,0,.51,4.64,7.22,7.22,0,0,0,3.21,3.42,5.19,5.19,0,0,0,2.34.6,3.88,3.88,0,0,0,1.64-.35,3.94,3.94,0,0,0,1.88-1.9l1.63-.33a5.55,5.55,0,0,1-2.95,4.29,4.61,4.61,0,0,1-.56.22l-1.48.22a6.84,6.84,0,0,1-3.1-.75,9.27,9.27,0,0,1-3.49-3.07l-.11-.16c-.1-.16-.2-.32-.3-.48l-.11-.19c-.12-.22-.24-.44-.35-.68s-.19-.44-.28-.66-.1-.29-.15-.43l-.05-.17a8.63,8.63,0,0,1,1.14-7.73l.09-.11,1.24-1.06a4.6,4.6,0,0,1,.43-.24,5.54,5.54,0,0,1,5.2.53l-1.32,1A3.94,3.94,0,0,0,95.52,30.28ZM83,43a5.31,5.31,0,0,0,5.32,3.34,15.79,15.79,0,0,0,2-.15h.06l3-.44A6.74,6.74,0,0,1,89.83,51c-3.83,1.77-9-1-11.31-5.95s-1-10.7,2.8-12.47a6.72,6.72,0,0,1,6.31.66l-2.25,1.92-.05,0C83.23,37,81.32,39.27,83,43Zm7.12,9.26a6.44,6.44,0,0,1-1.32.44h-.11l-1.21.15h-.13c-3.54,0-7.3-2.52-9.41-6.37l-.06-.12c-.13-.24-.25-.48-.37-.73s-.27-.62-.39-.93c-.06-.16-.11-.32-.17-.48l-.14-.42q-.1-.34-.18-.68l0-.17c-.87-3.77-.08-7.61,2.16-9.88l.05-.05.34-.32.07-.06.06,0a6.31,6.31,0,0,1,1.36-.86c2.27-1,5-.66,7.54,1l-.08.07A7.4,7.4,0,0,0,81,32c-4.14,1.91-5.56,8-3.11,13.31,1.93,4.19,5.81,6.85,9.39,6.85a6.55,6.55,0,0,0,2.77-.59,7.41,7.41,0,0,0,4-6l.19,0C94,48.74,92.45,51.2,90.16,52.26Zm4-7.87-.81.11L88,45.23a5.65,5.65,0,0,1-2-.57h0a2,2,0,0,1-.72-.55l6-3.8a5,5,0,0,0,.73,1.36l.11.15h0a6,6,0,0,0,1.47,1.5,7.94,7.94,0,0,0,1.62.92Zm10-6.26-5,1.1a3.11,3.11,0,0,1-1.69-.68h0a2.69,2.69,0,0,1-.73-.74l5.73-3.36,16.82-9.87a7.86,7.86,0,0,0,1.23,2.75c.91,1.75,3.75,5.12,5.88,5.95Z"/><path class="cls-1" d="M6.51,84.3a2,2,0,0,0-.73-.56,2.45,2.45,0,0,0-1-.19,2.52,2.52,0,0,0-1.9.84,2.89,2.89,0,0,0-.56.94,3.6,3.6,0,0,0,0,2.37,3,3,0,0,0,.55.94,2.5,2.5,0,0,0,.83.62,2.38,2.38,0,0,0,1,.22,2.28,2.28,0,0,0,1.1-.26,2.2,2.2,0,0,0,.79-.73l1.69,1.26A3.53,3.53,0,0,1,6.81,91,4.59,4.59,0,0,1,5,91.34,5.67,5.67,0,0,1,3,91,4.55,4.55,0,0,1,1.4,90a4.4,4.4,0,0,1-1-1.53,5.6,5.6,0,0,1,0-4A4.4,4.4,0,0,1,1.4,83,4.56,4.56,0,0,1,3,82a5.67,5.67,0,0,1,2-.34,4.91,4.91,0,0,1,.81.07,4.42,4.42,0,0,1,.83.23,3.71,3.71,0,0,1,.79.42,3.14,3.14,0,0,1,.68.64Z"/><path class="cls-1" d="M8.91,86.51a5.2,5.2,0,0,1,.37-2,4.4,4.4,0,0,1,1-1.53,4.56,4.56,0,0,1,1.57-1,6,6,0,0,1,4,0,4.55,4.55,0,0,1,1.57,1,4.39,4.39,0,0,1,1,1.53,5.6,5.6,0,0,1,0,4,4.39,4.39,0,0,1-1,1.53,4.54,4.54,0,0,1-1.57,1,6,6,0,0,1-4,0,4.55,4.55,0,0,1-1.57-1,4.4,4.4,0,0,1-1-1.53A5.2,5.2,0,0,1,8.91,86.51Zm2.11,0a3.39,3.39,0,0,0,.2,1.19,2.72,2.72,0,0,0,.58.94,2.64,2.64,0,0,0,.9.62,3.25,3.25,0,0,0,2.35,0,2.65,2.65,0,0,0,.9-.62,2.73,2.73,0,0,0,.58-.94,3.6,3.6,0,0,0,0-2.37,2.73,2.73,0,0,0-.58-.94,2.65,2.65,0,0,0-.9-.62,3.25,3.25,0,0,0-2.35,0,2.64,2.64,0,0,0-.9.62,2.72,2.72,0,0,0-.58.94A3.41,3.41,0,0,0,11,86.51Z"/><path class="cls-1" d="M20.21,81.9h3.07l2.12,6h0l2.13-6h3.05v9.2h-2V84h0l-2.42,7.06H24.6L22.27,84h0v7.06h-2Z"/><path class="cls-1" d="M32.49,81.9h3.07l2.12,6h0l2.13-6h3.05v9.2h-2V84h0l-2.42,7.06H36.87L34.54,84h0v7.06h-2Z"/><path class="cls-1" d="M52.52,87.56a4.45,4.45,0,0,1-.25,1.51,3.33,3.33,0,0,1-.73,1.2,3.37,3.37,0,0,1-1.22.79,5.1,5.1,0,0,1-3.37,0,3.35,3.35,0,0,1-1.21-.79,3.32,3.32,0,0,1-.74-1.2,4.45,4.45,0,0,1-.25-1.51V81.9h2v5.58a2.24,2.24,0,0,0,.14.79,1.88,1.88,0,0,0,.38.63,1.73,1.73,0,0,0,.59.42,1.86,1.86,0,0,0,.75.15,1.81,1.81,0,0,0,.74-.15A1.77,1.77,0,0,0,50,88.9a1.9,1.9,0,0,0,.38-.63,2.24,2.24,0,0,0,.14-.79V81.9h2Z"/><path class="cls-1" d="M54.39,81.9h2.76l3.91,6.4h0V81.9h2v9.2H60.46l-4-6.55h0v6.55h-2Z"/><path class="cls-1" d="M65,81.9h2v9.2H65Z"/><path class="cls-1" d="M74.85,84.3a2,2,0,0,0-.73-.56,2.45,2.45,0,0,0-1-.19,2.52,2.52,0,0,0-1.9.84,2.89,2.89,0,0,0-.56.94,3.6,3.6,0,0,0,0,2.37,3,3,0,0,0,.55.94,2.5,2.5,0,0,0,.83.62,2.38,2.38,0,0,0,1,.22,2.28,2.28,0,0,0,1.1-.26,2.2,2.2,0,0,0,.79-.73l1.69,1.26A3.53,3.53,0,0,1,75.15,91a4.59,4.59,0,0,1-1.85.39,5.67,5.67,0,0,1-2-.34,4.55,4.55,0,0,1-1.57-1,4.4,4.4,0,0,1-1-1.53,5.6,5.6,0,0,1,0-4,4.4,4.4,0,0,1,1-1.53,4.56,4.56,0,0,1,1.57-1,5.67,5.67,0,0,1,2-.34,4.91,4.91,0,0,1,.81.07A4.42,4.42,0,0,1,75,82a3.71,3.71,0,0,1,.79.42,3.14,3.14,0,0,1,.68.64Z"/><path class="cls-1" d="M80.77,81.9h1.68l4,9.2H84.16l-.79-2H79.79l-.77,2H76.79Zm.78,2.68-1.12,2.86h2.25Z"/><path class="cls-1" d="M88,83.7H85.33V81.9h7.28V83.7H90v7.41H88Z"/><path class="cls-1" d="M93.61,81.9h2v9.2h-2Z"/><path class="cls-1" d="M97,86.51a5.2,5.2,0,0,1,.37-2,4.4,4.4,0,0,1,1-1.53A4.56,4.56,0,0,1,100,82a6,6,0,0,1,4,0,4.55,4.55,0,0,1,1.57,1,4.39,4.39,0,0,1,1,1.53,5.6,5.6,0,0,1,0,4,4.39,4.39,0,0,1-1,1.53,4.54,4.54,0,0,1-1.57,1,6,6,0,0,1-4,0,4.55,4.55,0,0,1-1.57-1,4.4,4.4,0,0,1-1-1.53A5.2,5.2,0,0,1,97,86.51Zm2.11,0a3.39,3.39,0,0,0,.2,1.19,2.72,2.72,0,0,0,.58.94,2.64,2.64,0,0,0,.9.62,3.25,3.25,0,0,0,2.35,0,2.65,2.65,0,0,0,.9-.62,2.73,2.73,0,0,0,.58-.94,3.6,3.6,0,0,0,0-2.37,2.73,2.73,0,0,0-.58-.94,2.65,2.65,0,0,0-.9-.62,3.25,3.25,0,0,0-2.35,0,2.64,2.64,0,0,0-.9.62,2.72,2.72,0,0,0-.58.94A3.41,3.41,0,0,0,99.1,86.51Z"/><path class="cls-1" d="M108.3,81.9h2.76L115,88.3h0V81.9h2v9.2h-2.65l-4-6.55h0v6.55h-2Z"/><path class="cls-1" d="M123.45,84.15a1.45,1.45,0,0,0-.67-.46,2.4,2.4,0,0,0-.8-.15,2.13,2.13,0,0,0-.46.05,1.77,1.77,0,0,0-.44.16,1,1,0,0,0-.34.29.74.74,0,0,0-.13.44.73.73,0,0,0,.31.64,2.94,2.94,0,0,0,.79.38l1,.31a4.22,4.22,0,0,1,1,.44,2.42,2.42,0,0,1,.79.77,2.34,2.34,0,0,1,.31,1.29,3,3,0,0,1-.29,1.34,2.71,2.71,0,0,1-.77.95,3.27,3.27,0,0,1-1.13.56,5.19,5.19,0,0,1-3-.09,4.18,4.18,0,0,1-1.43-.88l1.44-1.59a2.1,2.1,0,0,0,.79.64,2.22,2.22,0,0,0,1.48.17,1.62,1.62,0,0,0,.45-.18,1,1,0,0,0,.33-.3.75.75,0,0,0,.12-.43.78.78,0,0,0-.32-.66,3,3,0,0,0-.8-.41l-1-.34a4.65,4.65,0,0,1-1-.46,2.51,2.51,0,0,1-.8-.75,2.16,2.16,0,0,1-.32-1.24,2.76,2.76,0,0,1,.29-1.3,2.82,2.82,0,0,1,.78-.94,3.41,3.41,0,0,1,1.13-.57,4.61,4.61,0,0,1,1.31-.19,5.17,5.17,0,0,1,1.51.22,3.48,3.48,0,0,1,1.31.74Z"/><path class="cls-1" d="M137,88.94l2.05,2.17h-2.51l-.77-.87a3.55,3.55,0,0,1-1.23.85,4,4,0,0,1-1.48.26,4.33,4.33,0,0,1-1.21-.17,3.22,3.22,0,0,1-1-.51,2.53,2.53,0,0,1-.73-.86,2.56,2.56,0,0,1-.27-1.21,2.36,2.36,0,0,1,.15-.84,2.54,2.54,0,0,1,.42-.72,3,3,0,0,1,.62-.57,3.19,3.19,0,0,1,.77-.38l-.41-.47a2.81,2.81,0,0,1-.33-.47,2.23,2.23,0,0,1-.21-.52,2.41,2.41,0,0,1-.07-.61,2.2,2.2,0,0,1,.24-1.07,2.13,2.13,0,0,1,.64-.73,2.72,2.72,0,0,1,.92-.42,4.39,4.39,0,0,1,1.07-.13,3.69,3.69,0,0,1,1,.14,2.56,2.56,0,0,1,.85.42,2.07,2.07,0,0,1,.59.7,2.15,2.15,0,0,1,.22,1,2.1,2.1,0,0,1-.14.77,2.67,2.67,0,0,1-.37.66,3.06,3.06,0,0,1-.54.55,4.06,4.06,0,0,1-.66.42l1.18,1.26.9-1.22h2.26Zm-4-1.75-.38.24a2.11,2.11,0,0,0-.34.27A1.19,1.19,0,0,0,132,88a1.07,1.07,0,0,0-.09.46,1,1,0,0,0,.1.47,1.09,1.09,0,0,0,.27.35,1.3,1.3,0,0,0,.4.23,1.32,1.32,0,0,0,.46.08,1.53,1.53,0,0,0,.79-.19,4.32,4.32,0,0,0,.66-.48Zm.62-4a.92.92,0,0,0-.64.23.8.8,0,0,0-.26.62.76.76,0,0,0,.08.33,1.94,1.94,0,0,0,.19.31,2.19,2.19,0,0,0,.25.28l.25.23.34-.21a2.55,2.55,0,0,0,.34-.27,1.55,1.55,0,0,0,.26-.32.72.72,0,0,0,.1-.37.75.75,0,0,0-.27-.62A1,1,0,0,0,133.6,83.23Z"/><path class="cls-1" d="M149.94,84.3a2,2,0,0,0-.73-.56,2.45,2.45,0,0,0-1-.19,2.52,2.52,0,0,0-1.9.84,2.89,2.89,0,0,0-.56.94,3.6,3.6,0,0,0,0,2.37,3,3,0,0,0,.55.94,2.5,2.5,0,0,0,.83.62,2.38,2.38,0,0,0,1,.22,2.28,2.28,0,0,0,1.1-.26,2.2,2.2,0,0,0,.79-.73l1.69,1.26A3.53,3.53,0,0,1,150.24,91a4.59,4.59,0,0,1-1.85.39,5.67,5.67,0,0,1-2-.34,4.55,4.55,0,0,1-1.57-1,4.4,4.4,0,0,1-1-1.53,5.6,5.6,0,0,1,0-4,4.4,4.4,0,0,1,1-1.53,4.56,4.56,0,0,1,1.57-1,5.67,5.67,0,0,1,2-.34,4.91,4.91,0,0,1,.81.07A4.42,4.42,0,0,1,150,82a3.71,3.71,0,0,1,.79.42,3.14,3.14,0,0,1,.68.64Z"/><path class="cls-1" d="M155.85,81.9h1.68l4,9.2h-2.29l-.79-2h-3.58l-.77,2h-2.24Zm.78,2.68-1.12,2.86h2.25Z"/><path class="cls-1" d="M162.46,81.9h3.43a8.7,8.7,0,0,1,1.2.08,3.3,3.3,0,0,1,1.09.34A2.08,2.08,0,0,1,169,83a2.17,2.17,0,0,1,.3,1.21,1.93,1.93,0,0,1-.44,1.29,2.4,2.4,0,0,1-1.15.73v0a2.64,2.64,0,0,1,.83.25,2.21,2.21,0,0,1,.64.48,2.06,2.06,0,0,1,.41.68,2.41,2.41,0,0,1,.14.83,2.21,2.21,0,0,1-.31,1.22,2.45,2.45,0,0,1-.81.79,3.52,3.52,0,0,1-1.11.43,6,6,0,0,1-1.23.13h-3.77Zm2,3.68H166a2.06,2.06,0,0,0,.46-.05,1.26,1.26,0,0,0,.41-.17.89.89,0,0,0,.29-.31.94.94,0,0,0,.11-.47.85.85,0,0,0-.12-.47.87.87,0,0,0-.32-.29,1.52,1.52,0,0,0-.44-.15,2.66,2.66,0,0,0-.48,0h-1.38Zm0,3.81h1.82a2.25,2.25,0,0,0,.47-.05,1.25,1.25,0,0,0,.44-.18,1,1,0,0,0,.32-.34,1,1,0,0,0,.12-.51.81.81,0,0,0-.16-.53,1,1,0,0,0-.41-.31,2.1,2.1,0,0,0-.53-.14,4,4,0,0,0-.53,0h-1.53Z"/><path class="cls-1" d="M171,81.9h2v7.33h3.76v1.87H171Z"/><path class="cls-1" d="M177.84,81.9h2v9.2h-2Z"/><path class="cls-1" d="M181.71,81.9h2.76l3.91,6.4h0V81.9h2v9.2h-2.65l-4-6.55h0v6.55h-2Z"/><path class="cls-1" d="M200.64,90.46a7.32,7.32,0,0,1-1.87.68,9.51,9.51,0,0,1-2,.21,5.67,5.67,0,0,1-2-.34,4.55,4.55,0,0,1-1.57-1,4.4,4.4,0,0,1-1-1.53,5.6,5.6,0,0,1,0-4,4.4,4.4,0,0,1,1-1.53,4.56,4.56,0,0,1,1.57-1,5.67,5.67,0,0,1,2-.34,7.36,7.36,0,0,1,2,.27,4,4,0,0,1,1.63.92L199,84.41a2.85,2.85,0,0,0-.94-.65,3.34,3.34,0,0,0-1.3-.22,3,3,0,0,0-1.18.22,2.64,2.64,0,0,0-.9.62,2.72,2.72,0,0,0-.58.94,3.6,3.6,0,0,0,0,2.37,2.72,2.72,0,0,0,.58.94,2.64,2.64,0,0,0,.9.62,3,3,0,0,0,1.18.22,3.88,3.88,0,0,0,1.14-.15,4.36,4.36,0,0,0,.77-.31v-1.5H197V85.65h3.6Z"/><path class="cls-1" d="M44.62,102a3,3,0,0,1-1.18,1,3.51,3.51,0,0,1-1.45.3A3.9,3.9,0,0,1,40.5,103a3.34,3.34,0,0,1-1.15-.77,3.52,3.52,0,0,1-.75-1.18,4,4,0,0,1-.27-1.5,4,4,0,0,1,.27-1.49,3.54,3.54,0,0,1,.75-1.18,3.4,3.4,0,0,1,1.15-.77A3.84,3.84,0,0,1,42,95.85a3.52,3.52,0,0,1,1.34.25,2.67,2.67,0,0,1,1.1.85l-.54.45a2,2,0,0,0-.85-.73A2.56,2.56,0,0,0,42,96.45a3.1,3.1,0,0,0-1.25.24,2.77,2.77,0,0,0-.94.66,2.9,2.9,0,0,0-.6,1,3.71,3.71,0,0,0,0,2.46,2.91,2.91,0,0,0,.6,1,2.77,2.77,0,0,0,.94.66,3.1,3.1,0,0,0,1.25.24,2.58,2.58,0,0,0,1.13-.27,2.71,2.71,0,0,0,.53-.34,2.2,2.2,0,0,0,.44-.5Z"/><path class="cls-1" d="M47.27,99.57a4,4,0,0,1,.27-1.49,3.54,3.54,0,0,1,.75-1.18,3.4,3.4,0,0,1,1.15-.77,4.08,4.08,0,0,1,3,0,3.39,3.39,0,0,1,1.15.77,3.54,3.54,0,0,1,.75,1.18,4,4,0,0,1,.27,1.49,4,4,0,0,1-.27,1.5,3.52,3.52,0,0,1-.75,1.18,3.33,3.33,0,0,1-1.15.77,4.14,4.14,0,0,1-3,0,3.34,3.34,0,0,1-1.15-.77,3.52,3.52,0,0,1-.75-1.18A4,4,0,0,1,47.27,99.57Zm.66,0a3.54,3.54,0,0,0,.21,1.23,2.91,2.91,0,0,0,.6,1,2.77,2.77,0,0,0,.94.66,3.35,3.35,0,0,0,2.49,0,2.78,2.78,0,0,0,.95-.66,2.92,2.92,0,0,0,.6-1,3.71,3.71,0,0,0,0-2.46,2.92,2.92,0,0,0-.6-1,2.78,2.78,0,0,0-.95-.66,3.35,3.35,0,0,0-2.49,0,2.77,2.77,0,0,0-.94.66,2.9,2.9,0,0,0-.6,1A3.54,3.54,0,0,0,47.93,99.57Z"/><path class="cls-1" d="M58,96h.85l4.31,6.2h0V96h.66v7.08H63l-4.31-6.2h0v6.2H58Z"/><path class="cls-1" d="M69.22,96.63H66.8V96h5.5v.6H69.88v6.48h-.66Z"/><path class="cls-1" d="M75.29,96h2.24a3.81,3.81,0,0,1,.52.06,3.18,3.18,0,0,1,.57.16,1.62,1.62,0,0,1,.52.32,1.66,1.66,0,0,1,.38.53,1.84,1.84,0,0,1,.15.78,1.78,1.78,0,0,1-.17.84,1.63,1.63,0,0,1-.44.53,1.85,1.85,0,0,1-.58.31,3.8,3.8,0,0,1-.61.14l2.06,3.4h-.75l-2-3.36H75.95v3.36h-.66Zm.66,3.12h1.4a2.31,2.31,0,0,0,.84-.13,1.4,1.4,0,0,0,.5-.32,1,1,0,0,0,.25-.41,1.26,1.26,0,0,0,0-.8,1,1,0,0,0-.25-.41,1.4,1.4,0,0,0-.5-.32,2.31,2.31,0,0,0-.84-.13h-1.4Z"/><path class="cls-1" d="M85.29,96H86l3,7.08h-.74l-.77-1.88H83.69l-.8,1.88H82.2Zm.31.72-1.65,3.88H87.2Z"/><path class="cls-1" d="M97.7,102a3,3,0,0,1-1.18,1,3.51,3.51,0,0,1-1.45.3,3.9,3.9,0,0,1-1.49-.28,3.34,3.34,0,0,1-1.15-.77,3.52,3.52,0,0,1-.75-1.18,4,4,0,0,1-.27-1.5,4,4,0,0,1,.27-1.49,3.54,3.54,0,0,1,.75-1.18,3.4,3.4,0,0,1,1.15-.77,3.84,3.84,0,0,1,1.49-.28,3.52,3.52,0,0,1,1.34.25,2.67,2.67,0,0,1,1.1.85l-.54.45a2,2,0,0,0-.85-.73,2.56,2.56,0,0,0-1.05-.23,3.1,3.1,0,0,0-1.25.24,2.77,2.77,0,0,0-.94.66,2.9,2.9,0,0,0-.6,1,3.71,3.71,0,0,0,0,2.46,2.91,2.91,0,0,0,.6,1,2.77,2.77,0,0,0,.94.66,3.1,3.1,0,0,0,1.25.24,2.58,2.58,0,0,0,1.13-.27,2.71,2.71,0,0,0,.53-.34,2.2,2.2,0,0,0,.44-.5Z"/><path class="cls-1" d="M102.38,96.63H100V96h5.5v.6H103v6.48h-.66Z"/><path class="cls-1" d="M108,99.57a4,4,0,0,1,.27-1.49A3.54,3.54,0,0,1,109,96.9a3.4,3.4,0,0,1,1.15-.77,4.08,4.08,0,0,1,3,0,3.39,3.39,0,0,1,1.15.77,3.54,3.54,0,0,1,.75,1.18,4,4,0,0,1,.27,1.49,4,4,0,0,1-.27,1.5,3.52,3.52,0,0,1-.75,1.18,3.33,3.33,0,0,1-1.15.77,4.14,4.14,0,0,1-3,0,3.34,3.34,0,0,1-1.15-.77,3.52,3.52,0,0,1-.75-1.18A4,4,0,0,1,108,99.57Zm.66,0a3.54,3.54,0,0,0,.21,1.23,2.91,2.91,0,0,0,.6,1,2.77,2.77,0,0,0,.94.66,3.35,3.35,0,0,0,2.49,0,2.78,2.78,0,0,0,.95-.66,2.92,2.92,0,0,0,.6-1,3.71,3.71,0,0,0,0-2.46,2.92,2.92,0,0,0-.6-1,2.78,2.78,0,0,0-.95-.66,3.35,3.35,0,0,0-2.49,0,2.77,2.77,0,0,0-.94.66,2.9,2.9,0,0,0-.6,1A3.54,3.54,0,0,0,108.65,99.57Z"/><path class="cls-1" d="M118.69,96h2.24a3.81,3.81,0,0,1,.52.06,3.18,3.18,0,0,1,.57.16,1.62,1.62,0,0,1,.52.32,1.66,1.66,0,0,1,.38.53,1.84,1.84,0,0,1,.15.78,1.78,1.78,0,0,1-.17.84,1.63,1.63,0,0,1-.44.53,1.85,1.85,0,0,1-.58.31,3.8,3.8,0,0,1-.61.14l2.06,3.4h-.75l-2-3.36h-1.23v3.36h-.66Zm.66,3.12h1.4a2.31,2.31,0,0,0,.84-.13,1.4,1.4,0,0,0,.5-.32,1,1,0,0,0,.25-.41,1.26,1.26,0,0,0,0-.8,1,1,0,0,0-.25-.41,1.4,1.4,0,0,0-.5-.32,2.31,2.31,0,0,0-.84-.13h-1.4Z"/><path class="cls-1" d="M126.71,101.8a1.69,1.69,0,0,0,.67.67,2,2,0,0,0,.95.22,1.88,1.88,0,0,0,.62-.1,1.58,1.58,0,0,0,.5-.28,1.34,1.34,0,0,0,.34-.44,1.29,1.29,0,0,0,.13-.58,1.1,1.1,0,0,0-.16-.61,1.24,1.24,0,0,0-.42-.4,3,3,0,0,0-.58-.27l-.67-.22q-.34-.11-.67-.25a2.24,2.24,0,0,1-.58-.37,1.62,1.62,0,0,1-.42-.56,2,2,0,0,1-.16-.84,1.81,1.81,0,0,1,.19-.83,1.78,1.78,0,0,1,.5-.61,2.22,2.22,0,0,1,.72-.37,2.93,2.93,0,0,1,.86-.12,2.79,2.79,0,0,1,1.08.2,2.05,2.05,0,0,1,.85.69l-.57.41a1.66,1.66,0,0,0-.58-.52,1.69,1.69,0,0,0-.79-.18,2.17,2.17,0,0,0-.61.08,1.53,1.53,0,0,0-.5.25,1.24,1.24,0,0,0-.35.42,1.26,1.26,0,0,0-.13.59,1.14,1.14,0,0,0,.27.81,1.89,1.89,0,0,0,.67.45,7,7,0,0,0,.88.29,4.28,4.28,0,0,1,.88.33,1.89,1.89,0,0,1,.67.58,1.74,1.74,0,0,1,.27,1,1.92,1.92,0,0,1-.18.85,1.86,1.86,0,0,1-.48.63,2.1,2.1,0,0,1-.71.38,2.66,2.66,0,0,1-.83.13,3.34,3.34,0,0,1-1.29-.25,2.36,2.36,0,0,1-1-.83Z"/><path class="cls-1" d="M138.48,96h.66v7.08h-.66Z"/><path class="cls-1" d="M143,96h.85l4.31,6.2h0V96h.66v7.08H148l-4.31-6.2h0v6.2H143Z"/><path class="cls-1" d="M158.49,102a3,3,0,0,1-1.18,1,3.51,3.51,0,0,1-1.45.3,3.9,3.9,0,0,1-1.49-.28,3.34,3.34,0,0,1-1.15-.77,3.52,3.52,0,0,1-.75-1.18,4,4,0,0,1-.27-1.5,4,4,0,0,1,.27-1.49,3.54,3.54,0,0,1,.75-1.18,3.4,3.4,0,0,1,1.15-.77,3.84,3.84,0,0,1,1.49-.28,3.52,3.52,0,0,1,1.34.25,2.67,2.67,0,0,1,1.1.85l-.54.45a2,2,0,0,0-.85-.73,2.56,2.56,0,0,0-1.05-.23,3.1,3.1,0,0,0-1.25.24,2.77,2.77,0,0,0-.94.66,2.9,2.9,0,0,0-.6,1,3.71,3.71,0,0,0,0,2.46,2.91,2.91,0,0,0,.6,1,2.77,2.77,0,0,0,.94.66,3.1,3.1,0,0,0,1.25.24,2.58,2.58,0,0,0,1.13-.27,2.71,2.71,0,0,0,.53-.34,2.2,2.2,0,0,0,.44-.5Z"/><path class="cls-1" d="M161.45,102.69a.48.48,0,1,1,.14.34A.46.46,0,0,1,161.45,102.69Z"/><path class="cls-1" d="M31,100H.5a.25.25,0,0,1,0-.5H31a.25.25,0,0,1,0,.5Z"/><path class="cls-1" d="M200.5,100H170a.25.25,0,0,1,0-.5h30.5a.25.25,0,0,1,0,.5Z"/></svg>